<svg xmlns="http://www.w3.org/2000/svg" width="501" height="361" viewBox="73 29 501 361" role="img" aria-labelledby="t d">
<defs>
 <marker id="a" markerWidth="10" markerHeight="10" refX="9" refY="5" orient="auto"><path d="M0,0.6 L10,5 L0,9.4 Z" fill="#B8A9C9"/></marker>
 <marker id="b" markerWidth="10" markerHeight="10" refX="9" refY="5" orient="auto-start-reverse"><path d="M0,0.6 L10,5 L0,9.4 Z" fill="#B8A9C9"/></marker>
</defs>
<style>
 .lbl{font-family:'Latin Modern Roman','Georgia',serif;font-style:italic;font-weight:600;fill:#B8A9C9}
 .lblu{font-family:'Latin Modern Roman','Georgia',serif;font-weight:700;fill:#B8A9C9}
 .w{font-family:'Latin Modern Roman','Georgia',serif;font-size:17px;fill:#B8A9C9;fill-opacity:.95}
</style>
<line x1="146" y1="150" x2="429" y2="150" stroke="#B8A9C9" stroke-width="2.2" marker-end="url(#a)"/>
<text class="w" x="290" y="138" text-anchor="middle">4</text>
<line x1="120" y1="176" x2="120" y2="299" stroke="#B8A9C9" stroke-width="2.2" marker-end="url(#a)"/>
<text class="w" x="102" y="244" text-anchor="middle">2</text>
<line x1="143" y1="318" x2="433" y2="165" stroke="#B8A9C9" stroke-width="2.2" marker-end="url(#a)"/>
<text class="w" x="304" y="232" text-anchor="middle">1</text>
<line x1="460" y1="176" x2="460" y2="299" stroke="#B8A9C9" stroke-width="2.2" marker-end="url(#a)"/>
<text class="w" x="478" y="244" text-anchor="middle">5</text>
<line x1="146" y1="330" x2="429" y2="330" stroke="#B8A9C9" stroke-width="2.2" marker-end="url(#a)"/>
<text class="w" x="290" y="356" text-anchor="middle">3</text>
<path d="M482 310 C560 250 540 70 300 60 C210 56 160 90 142 124" fill="none" stroke="#B8A9C9" stroke-width="2.2" marker-end="url(#a)"/>
<text class="w" x="540" y="160" text-anchor="middle">1</text>
<circle cx="120" cy="150" r="26" fill="#B8A9C9" fill-opacity=".30" stroke="#B8A9C9" stroke-width="2.2"/>
<text class="lbl" x="120" y="158" text-anchor="middle" font-size="22">A</text>
<circle cx="460" cy="150" r="26" fill="#B8A9C9" fill-opacity=".30" stroke="#B8A9C9" stroke-width="2.2"/>
<text class="lbl" x="460" y="158" text-anchor="middle" font-size="22">B</text>
<circle cx="120" cy="330" r="26" fill="#B8A9C9" fill-opacity=".30" stroke="#B8A9C9" stroke-width="2.2"/>
<text class="lbl" x="120" y="338" text-anchor="middle" font-size="22">D</text>
<circle cx="460" cy="330" r="26" fill="#B8A9C9" fill-opacity=".30" stroke="#B8A9C9" stroke-width="2.2"/>
<text class="lbl" x="460" y="338" text-anchor="middle" font-size="22">C</text>
</svg>