<svg xmlns="http://www.w3.org/2000/svg" width="1156" height="283" viewBox="1 24 1156 283" role="img" aria-labelledby="t d">
<defs>
 <marker id="as" markerWidth="9" markerHeight="9" refX="8" refY="4.5" orient="auto"><path d="M0,0 L9,4.5 L0,9 Z" fill="#87A878"/></marker>
</defs>
<style>
 text{font-family:'Segoe UI',system-ui,-apple-system,Roboto,Arial,sans-serif}
 .note{font-size:12.5px;fill:#B8A9C9}
</style>
<text x="100" y="86" text-anchor="middle" font-size="30" font-weight="700" fill="#87A878">S</text>
<circle cx="100" cy="150" r="44" fill="#87A878" fill-opacity=".16" stroke="#87A878" stroke-width="2.5"/>
<g fill="none" stroke="#87A878" stroke-width="2.2" stroke-linecap="round" stroke-linejoin="round"><circle cx="98" cy="141" r="8"/><path d="M84 165 A14 14 0 0 1 112 165"/><path d="M108 148 l4 4 l7 -8"/></g>
<text x="100" y="216" text-anchor="middle" font-size="13.5" font-weight="600" fill="#87A878">Spoofing</text>
<text x="100" y="241" text-anchor="middle" font-size="11" fill="#87A878" fill-opacity=".85">Pretending to be someone</text>
<text x="100" y="257" text-anchor="middle" font-size="11" fill="#87A878" fill-opacity=".85">or something else.</text>
<text x="292" y="86" text-anchor="middle" font-size="30" font-weight="700" fill="#B8A9C9">T</text>
<circle cx="292" cy="150" r="44" fill="#B8A9C9" fill-opacity=".16" stroke="#B8A9C9" stroke-width="2.5"/>
<g fill="none" stroke="#B8A9C9" stroke-width="2.2" stroke-linecap="round" stroke-linejoin="round"><path d="M278 164 L281 155 L301 135 L308 142 L288 162 Z"/><line x1="281" y1="155" x2="288" y2="162"/></g>
<text x="292" y="216" text-anchor="middle" font-size="13.5" font-weight="600" fill="#B8A9C9">Tampering</text>
<text x="292" y="241" text-anchor="middle" font-size="11" fill="#B8A9C9" fill-opacity=".85">Modifying data or systems</text>
<text x="292" y="257" text-anchor="middle" font-size="11" fill="#B8A9C9" fill-opacity=".85">without authorisation.</text>
<text x="484" y="86" text-anchor="middle" font-size="30" font-weight="700" fill="#87A878">R</text>
<circle cx="484" cy="150" r="44" fill="#87A878" fill-opacity=".16" stroke="#87A878" stroke-width="2.5"/>
<g fill="none" stroke="#87A878" stroke-width="2.2" stroke-linecap="round" stroke-linejoin="round"><circle cx="484" cy="150" r="17"/><line x1="472" y1="162" x2="496" y2="138"/></g>
<text x="484" y="216" text-anchor="middle" font-size="13.5" font-weight="600" fill="#87A878">Repudiation</text>
<text x="484" y="241" text-anchor="middle" font-size="11" fill="#87A878" fill-opacity=".85">Denying an action with no</text>
<text x="484" y="257" text-anchor="middle" font-size="11" fill="#87A878" fill-opacity=".85">evidence to the contrary.</text>
<text x="676" y="86" text-anchor="middle" font-size="30" font-weight="700" fill="#B8A9C9">I</text>
<circle cx="676" cy="150" r="44" fill="#B8A9C9" fill-opacity=".16" stroke="#B8A9C9" stroke-width="2.5"/>
<g fill="none" stroke="#B8A9C9" stroke-width="2.2" stroke-linecap="round" stroke-linejoin="round"><path d="M656 150 C664 137 688 137 696 150 C688 163 664 163 656 150 Z"/><circle cx="676" cy="150" r="5.5"/></g>
<text x="676" y="216" text-anchor="middle" font-size="13.5" font-weight="600" fill="#B8A9C9">Information</text>
<text x="676" y="233" text-anchor="middle" font-size="13.5" font-weight="600" fill="#B8A9C9">disclosure</text>
<text x="676" y="258" text-anchor="middle" font-size="11" fill="#B8A9C9" fill-opacity=".85">Exposing information to</text>
<text x="676" y="274" text-anchor="middle" font-size="11" fill="#B8A9C9" fill-opacity=".85">unauthorised parties.</text>
<text x="868" y="86" text-anchor="middle" font-size="30" font-weight="700" fill="#87A878">D</text>
<circle cx="868" cy="150" r="44" fill="#87A878" fill-opacity=".16" stroke="#87A878" stroke-width="2.5"/>
<g fill="none" stroke="#87A878" stroke-width="2.2" stroke-linecap="round" stroke-linejoin="round"><rect x="850" y="134" width="36" height="10" rx="2"/><rect x="850" y="147" width="36" height="10" rx="2"/><line x1="868" y1="160" x2="868" y2="168"/><path d="M863 163 L868 169 L873 163"/></g>
<text x="868" y="216" text-anchor="middle" font-size="13.5" font-weight="600" fill="#87A878">Denial of service</text>
<text x="868" y="241" text-anchor="middle" font-size="11" fill="#87A878" fill-opacity=".85">Interrupting a service or</text>
<text x="868" y="257" text-anchor="middle" font-size="11" fill="#87A878" fill-opacity=".85">making a system unavailable.</text>
<text x="1060" y="86" text-anchor="middle" font-size="30" font-weight="700" fill="#B8A9C9">E</text>
<circle cx="1060" cy="150" r="44" fill="#B8A9C9" fill-opacity=".16" stroke="#B8A9C9" stroke-width="2.5"/>
<g fill="none" stroke="#B8A9C9" stroke-width="2.2" stroke-linecap="round" stroke-linejoin="round"><path d="M1060 133 L1075 139 L1075 153 C1075 162 1067 167 1060 168 C1053 167 1045 162 1045 153 L1045 139 Z"/><path d="M1054 152 L1060 145 L1066 152"/></g>
<text x="1060" y="216" text-anchor="middle" font-size="13.5" font-weight="600" fill="#B8A9C9">Elevation of</text>
<text x="1060" y="233" text-anchor="middle" font-size="13.5" font-weight="600" fill="#B8A9C9">privilege</text>
<text x="1060" y="258" text-anchor="middle" font-size="11" fill="#B8A9C9" fill-opacity=".85">Gaining more access than</text>
<text x="1060" y="274" text-anchor="middle" font-size="11" fill="#B8A9C9" fill-opacity=".85">was ever intended.</text>
</svg>
