<svg xmlns="http://www.w3.org/2000/svg" width="580" height="430" viewBox="0 0 580 430" font-family="Inter, Helvetica Neue, Arial, sans-serif">
<line x1="50" y1="326.0" x2="564" y2="326.0" stroke="#B8A9C9" stroke-opacity="0.45" stroke-width="1"/>
<text x="40" y="330.0" font-size="11" fill="#B8A9C9" text-anchor="end">0%</text>
<line x1="50" y1="251.5" x2="564" y2="251.5" stroke="#B8A9C9" stroke-opacity="0.45" stroke-width="1"/>
<text x="40" y="255.5" font-size="11" fill="#B8A9C9" text-anchor="end">25%</text>
<line x1="50" y1="177.0" x2="564" y2="177.0" stroke="#B8A9C9" stroke-opacity="0.45" stroke-width="1"/>
<text x="40" y="181.0" font-size="11" fill="#B8A9C9" text-anchor="end">50%</text>
<line x1="50" y1="102.5" x2="564" y2="102.5" stroke="#B8A9C9" stroke-opacity="0.45" stroke-width="1"/>
<text x="40" y="106.5" font-size="11" fill="#B8A9C9" text-anchor="end">75%</text>
<line x1="50" y1="28.0" x2="564" y2="28.0" stroke="#B8A9C9" stroke-opacity="0.45" stroke-width="1"/>
<text x="40" y="32.0" font-size="11" fill="#B8A9C9" text-anchor="end">100%</text>
<text x="92.8" y="318.0" font-size="11.5" fill="#C0603C" text-anchor="middle">0%</text>
<text x="92.8" y="346.0" font-size="11.5" fill="#C0603C" text-anchor="middle">TLS 1.0</text>
<text x="178.5" y="318.0" font-size="11.5" fill="#C0603C" text-anchor="middle">0%</text>
<text x="178.5" y="346.0" font-size="11.5" fill="#C0603C" text-anchor="middle">TLS 1.1</text>
<path d="M252.16666666666669,326.00 v-206.54 a4,4 0 0 1 4,-4 h16 a4,4 0 0 1 4,4 v206.54 Z" fill="#C0603C"/>
<text x="264.2" y="107.5" font-size="11.5" fill="#C0603C" text-anchor="middle">70.7%</text>
<text x="264.2" y="346.0" font-size="11.5" fill="#C0603C" text-anchor="middle">TLS 1.2</text>
<text x="264.2" y="360.0" font-size="11.5" fill="#C0603C" text-anchor="middle">CBC</text>
<path d="M337.8333333333333,326.00 v-287.52 a4,4 0 0 1 4,-4 h16 a4,4 0 0 1 4,4 v287.52 Z" fill="#87A878"/>
<text x="349.8" y="26.5" font-size="11.5" fill="#87A878" text-anchor="middle">97.8%</text>
<text x="349.8" y="346.0" font-size="11.5" fill="#87A878" text-anchor="middle">TLS 1.2</text>
<text x="349.8" y="360.0" font-size="11.5" fill="#87A878" text-anchor="middle">AEAD</text>
<path d="M423.5,326.00 v-238.93 a4,4 0 0 1 4,-4 h16 a4,4 0 0 1 4,4 v238.93 Z" fill="#87A878"/>
<text x="435.5" y="75.1" font-size="11.5" fill="#87A878" text-anchor="middle">81.5%</text>
<text x="435.5" y="346.0" font-size="11.5" fill="#87A878" text-anchor="middle">TLS 1.3</text>
<path d="M509.16666666666674,326.00 v-51.07 a4,4 0 0 1 4,-4 h16 a4,4 0 0 1 4,4 v51.07 Z" fill="#B8A9C9"/>
<text x="521.2" y="262.9" font-size="11.5" fill="#B8A9C9" text-anchor="middle">18.5%</text>
<text x="521.2" y="346.0" font-size="11.5" fill="#B8A9C9" text-anchor="middle">TLS 1.3</text>
<text x="521.2" y="360.0" font-size="11.5" fill="#B8A9C9" text-anchor="middle">PQ</text>
<rect x="50" y="399" width="11" height="11" rx="2.5" fill="#C0603C"/>
<text x="68" y="408" font-size="12" fill="#C0603C">Deprecated</text>
<rect x="160" y="399" width="11" height="11" rx="2.5" fill="#87A878"/>
<text x="178" y="408" font-size="12" fill="#87A878">Classical key exchange</text>
<rect x="360" y="399" width="11" height="11" rx="2.5" fill="#B8A9C9"/>
<text x="378" y="408" font-size="12" fill="#B8A9C9">Post-quantum (hybrid ML-KEM)</text>
</svg>