<svg xmlns="http://www.w3.org/2000/svg" viewBox="0 0 900 570" width="900" height="570" role="img" aria-label="Definition 11: the leakage is the HMAC input length h plus r. With a 64-byte plaintext and a 20-byte tag, valid padding of length p gives 56 minus p, and a failed padding check gives 57.">
<defs><marker id="arr-s" viewBox="0 0 10 10" refX="9" refY="5" markerWidth="7" markerHeight="7" orient="auto-start-reverse"><path d="M0,0 L10,5 L0,10 z" fill="#87A878"/></marker><marker id="arr-l" viewBox="0 0 10 10" refX="9" refY="5" markerWidth="7" markerHeight="7" orient="auto-start-reverse"><path d="M0,0 L10,5 L0,10 z" fill="#B8A9C9"/></marker></defs>
<text x="20" y="28" fill="#87A878" font-size="15" font-family="system-ui, -apple-system, Segoe UI, sans-serif" font-weight="bold" text-anchor="start">Definition 11: the leakage λ<tspan dy='4' font-size='75%'>1.1</tspan><tspan dy='-4'>​</tspan> is the HMAC input length h + r</text>
<text x="20" y="50" fill="#87A878" font-size="13" font-family="system-ui, -apple-system, Segoe UI, sans-serif" text-anchor="start">Example: ℓ<tspan dy='4' font-size='75%'>P</tspan><tspan dy='-4'>​</tspan> = 64 (four 16-byte blocks), t = 20, h = 13</text>
<text x="232" y="76" fill="#87A878" font-size="12" font-family="system-ui, -apple-system, Segoe UI, sans-serif" text-anchor="middle">decrypted plaintext P</text>
<text x="640" y="76" fill="#87A878" font-size="12" font-family="system-ui, -apple-system, Segoe UI, sans-serif" text-anchor="middle">HMAC input AD ‖ R</text>
<text x="40" y="98" fill="#87A878" font-size="12" font-family="system-ui, -apple-system, Segoe UI, sans-serif" font-weight="bold" text-anchor="start">Π<tspan dy='4' font-size='75%'>strict</tspan><tspan dy='-4'>​</tspan>(P) holds, here p = 6: strip</text>
<rect x="40" y="106" width="222" height="28" fill="#87A878" fill-opacity="0.25" stroke="#87A878" stroke-width="1.5" rx="4"/>
<text x="151.0" y="124.55" fill="#87A878" font-size="13" font-family="STIX Two Math, Latin Modern Math, Cambria Math, Times New Roman, serif" font-style="italic" text-anchor="middle">R</text>
<rect x="262" y="106" width="120" height="28" fill="#B8A9C9" fill-opacity="0.3" stroke="#B8A9C9" stroke-width="1.5" rx="4"/>
<text x="322.0" y="124.55" fill="#B8A9C9" font-size="13" font-family="STIX Two Math, Latin Modern Math, Cambria Math, Times New Roman, serif" font-style="italic" text-anchor="middle">T</text>
<rect x="382" y="106" width="42" height="28" fill="#87A878" fill-opacity="0.55" stroke="#87A878" stroke-width="1.5" rx="4"/>
<text x="403.0" y="124.55" fill="#87A878" font-size="13" font-family="STIX Two Math, Latin Modern Math, Cambria Math, Times New Roman, serif" font-style="italic" text-anchor="middle">pad</text>
<path d="M430,120 L466,120" fill="none" stroke="#87A878" stroke-width="1.5" marker-end="url(#arr-s)"/>
<rect x="470" y="106" width="78" height="28" fill="#87A878" fill-opacity="0.08" stroke="#87A878" stroke-width="1.5" rx="4"/>
<text x="509.0" y="124.55" fill="#87A878" font-size="13" font-family="STIX Two Math, Latin Modern Math, Cambria Math, Times New Roman, serif" font-style="italic" text-anchor="middle">AD</text>
<rect x="548" y="106" width="222" height="28" fill="#87A878" fill-opacity="0.25" stroke="#87A878" stroke-width="1.5" rx="4"/>
<text x="659.0" y="124.55" fill="#87A878" font-size="13" font-family="STIX Two Math, Latin Modern Math, Cambria Math, Times New Roman, serif" font-style="italic" text-anchor="middle">R</text>
<text x="782" y="125" fill="#87A878" font-size="14" font-family="STIX Two Math, Latin Modern Math, Cambria Math, Times New Roman, serif" font-style="italic" text-anchor="start">λ = 50</text>
<text x="620" y="156" fill="#87A878" font-size="13" font-family="STIX Two Math, Latin Modern Math, Cambria Math, Times New Roman, serif" font-style="italic" text-anchor="middle">λ = h + ℓ<tspan dy='4' font-size='75%'>P</tspan><tspan dy='-4'>​</tspan> − t − 1 − p</text>
<text x="40" y="190" fill="#B8A9C9" font-size="12" font-family="system-ui, -apple-system, Segoe UI, sans-serif" font-weight="bold" text-anchor="start">Π<tspan dy='4' font-size='75%'>strict</tspan><tspan dy='-4'>​</tspan>(P) fails: strip<tspan dy='4' font-size='75%'>0</tspan><tspan dy='-4'>​</tspan></text>
<rect x="40" y="198" width="264" height="28" fill="#87A878" fill-opacity="0.25" stroke="#87A878" stroke-width="1.5" rx="4"/>
<text x="172.0" y="216.55" fill="#87A878" font-size="13" font-family="STIX Two Math, Latin Modern Math, Cambria Math, Times New Roman, serif" font-style="italic" text-anchor="middle">R</text>
<rect x="304" y="198" width="120" height="28" fill="#B8A9C9" fill-opacity="0.3" stroke="#B8A9C9" stroke-width="1.5" rx="4"/>
<text x="364.0" y="216.55" fill="#B8A9C9" font-size="13" font-family="STIX Two Math, Latin Modern Math, Cambria Math, Times New Roman, serif" font-style="italic" text-anchor="middle">T</text>
<path d="M430,212 L466,212" fill="none" stroke="#87A878" stroke-width="1.5" marker-end="url(#arr-s)"/>
<rect x="470" y="198" width="78" height="28" fill="#87A878" fill-opacity="0.08" stroke="#87A878" stroke-width="1.5" rx="4"/>
<text x="509.0" y="216.55" fill="#87A878" font-size="13" font-family="STIX Two Math, Latin Modern Math, Cambria Math, Times New Roman, serif" font-style="italic" text-anchor="middle">AD</text>
<rect x="548" y="198" width="264" height="28" fill="#87A878" fill-opacity="0.25" stroke="#87A878" stroke-width="1.5" rx="4"/>
<text x="680.0" y="216.55" fill="#87A878" font-size="13" font-family="STIX Two Math, Latin Modern Math, Cambria Math, Times New Roman, serif" font-style="italic" text-anchor="middle">R</text>
<text x="824" y="217" fill="#B8A9C9" font-size="14" font-family="STIX Two Math, Latin Modern Math, Cambria Math, Times New Roman, serif" font-style="italic" text-anchor="start">λ = 57</text>
<text x="640" y="248" fill="#B8A9C9" font-size="13" font-family="STIX Two Math, Latin Modern Math, Cambria Math, Times New Roman, serif" font-style="italic" text-anchor="middle">λ = h + ℓ<tspan dy='4' font-size='75%'>P</tspan><tspan dy='-4'>​</tspan> − t</text>
<line x1="110" y1="500" x2="780" y2="500" stroke="#87A878" stroke-width="1.3"/>
<line x1="110" y1="500" x2="110" y2="245" stroke="#87A878" stroke-width="1.3"/>
<line x1="106" y1="500" x2="110" y2="500" stroke="#87A878" stroke-width="1.2"/>
<text x="102" y="504" fill="#87A878" font-size="11" font-family="system-ui, -apple-system, Segoe UI, sans-serif" text-anchor="end">10</text>
<line x1="106" y1="450" x2="110" y2="450" stroke="#87A878" stroke-width="1.2"/>
<text x="102" y="454" fill="#87A878" font-size="11" font-family="system-ui, -apple-system, Segoe UI, sans-serif" text-anchor="end">20</text>
<line x1="106" y1="400" x2="110" y2="400" stroke="#87A878" stroke-width="1.2"/>
<text x="102" y="404" fill="#87A878" font-size="11" font-family="system-ui, -apple-system, Segoe UI, sans-serif" text-anchor="end">30</text>
<line x1="106" y1="350" x2="110" y2="350" stroke="#87A878" stroke-width="1.2"/>
<text x="102" y="354" fill="#87A878" font-size="11" font-family="system-ui, -apple-system, Segoe UI, sans-serif" text-anchor="end">40</text>
<line x1="106" y1="300" x2="110" y2="300" stroke="#87A878" stroke-width="1.2"/>
<text x="102" y="304" fill="#87A878" font-size="11" font-family="system-ui, -apple-system, Segoe UI, sans-serif" text-anchor="end">50</text>
<line x1="106" y1="250" x2="110" y2="250" stroke="#87A878" stroke-width="1.2"/>
<text x="102" y="254" fill="#87A878" font-size="11" font-family="system-ui, -apple-system, Segoe UI, sans-serif" text-anchor="end">60</text>
<line x1="110" y1="500" x2="110" y2="504" stroke="#87A878" stroke-width="1.2"/>
<text x="110" y="517" fill="#87A878" font-size="11" font-family="system-ui, -apple-system, Segoe UI, sans-serif" text-anchor="middle">0</text>
<line x1="260" y1="500" x2="260" y2="504" stroke="#87A878" stroke-width="1.2"/>
<text x="260" y="517" fill="#87A878" font-size="11" font-family="system-ui, -apple-system, Segoe UI, sans-serif" text-anchor="middle">10</text>
<line x1="410" y1="500" x2="410" y2="504" stroke="#87A878" stroke-width="1.2"/>
<text x="410" y="517" fill="#87A878" font-size="11" font-family="system-ui, -apple-system, Segoe UI, sans-serif" text-anchor="middle">20</text>
<line x1="560" y1="500" x2="560" y2="504" stroke="#87A878" stroke-width="1.2"/>
<text x="560" y="517" fill="#87A878" font-size="11" font-family="system-ui, -apple-system, Segoe UI, sans-serif" text-anchor="middle">30</text>
<line x1="755" y1="500" x2="755" y2="504" stroke="#87A878" stroke-width="1.2"/>
<text x="755" y="517" fill="#87A878" font-size="11" font-family="system-ui, -apple-system, Segoe UI, sans-serif" text-anchor="middle">43</text>
<text x="80" y="249" fill="#87A878" font-size="15" font-family="STIX Two Math, Latin Modern Math, Cambria Math, Times New Roman, serif" font-style="italic" text-anchor="middle">λ</text>
<line x1="110" y1="272.5" x2="780" y2="272.5" stroke="#87A878" stroke-width="1.2" stroke-dasharray="4 3"/>
<text x="775" y="288.5" fill="#87A878" font-size="11" font-family="system-ui, -apple-system, Segoe UI, sans-serif" text-anchor="end">λ ≤ 55: 4 compression calls</text>
<line x1="110" y1="265" x2="755" y2="265" stroke="#B8A9C9" stroke-width="2.2"/>
<text x="120" y="257" fill="#B8A9C9" font-size="12" font-family="system-ui, -apple-system, Segoe UI, sans-serif" text-anchor="start">Π<tspan dy='4' font-size='75%'>strict</tspan><tspan dy='-4'>​</tspan> fails: λ = 57 for every p</text>
<circle cx="110" cy="270" r="3.2" fill="#87A878" fill-opacity="0.8"/>
<circle cx="125" cy="275" r="3.2" fill="#87A878" fill-opacity="0.8"/>
<circle cx="140" cy="280" r="3.2" fill="#87A878" fill-opacity="0.8"/>
<circle cx="155" cy="285" r="3.2" fill="#87A878" fill-opacity="0.8"/>
<circle cx="170" cy="290" r="3.2" fill="#87A878" fill-opacity="0.8"/>
<circle cx="185" cy="295" r="3.2" fill="#87A878" fill-opacity="0.8"/>
<circle cx="200" cy="300" r="3.2" fill="#87A878" fill-opacity="0.8"/>
<circle cx="215" cy="305" r="3.2" fill="#87A878" fill-opacity="0.8"/>
<circle cx="230" cy="310" r="3.2" fill="#87A878" fill-opacity="0.8"/>
<circle cx="245" cy="315" r="3.2" fill="#87A878" fill-opacity="0.8"/>
<circle cx="260" cy="320" r="3.2" fill="#87A878" fill-opacity="0.8"/>
<circle cx="275" cy="325" r="3.2" fill="#87A878" fill-opacity="0.8"/>
<circle cx="290" cy="330" r="3.2" fill="#87A878" fill-opacity="0.8"/>
<circle cx="305" cy="335" r="3.2" fill="#87A878" fill-opacity="0.8"/>
<circle cx="320" cy="340" r="3.2" fill="#87A878" fill-opacity="0.8"/>
<circle cx="335" cy="345" r="3.2" fill="#87A878" fill-opacity="0.8"/>
<circle cx="350" cy="350" r="3.2" fill="#87A878" fill-opacity="0.8"/>
<circle cx="365" cy="355" r="3.2" fill="#87A878" fill-opacity="0.8"/>
<circle cx="380" cy="360" r="3.2" fill="#87A878" fill-opacity="0.8"/>
<circle cx="395" cy="365" r="3.2" fill="#87A878" fill-opacity="0.8"/>
<circle cx="410" cy="370" r="3.2" fill="#87A878" fill-opacity="0.8"/>
<circle cx="425" cy="375" r="3.2" fill="#87A878" fill-opacity="0.8"/>
<circle cx="440" cy="380" r="3.2" fill="#87A878" fill-opacity="0.8"/>
<circle cx="455" cy="385" r="3.2" fill="#87A878" fill-opacity="0.8"/>
<circle cx="470" cy="390" r="3.2" fill="#87A878" fill-opacity="0.8"/>
<circle cx="485" cy="395" r="3.2" fill="#87A878" fill-opacity="0.8"/>
<circle cx="500" cy="400" r="3.2" fill="#87A878" fill-opacity="0.8"/>
<circle cx="515" cy="405" r="3.2" fill="#87A878" fill-opacity="0.8"/>
<circle cx="530" cy="410" r="3.2" fill="#87A878" fill-opacity="0.8"/>
<circle cx="545" cy="415" r="3.2" fill="#87A878" fill-opacity="0.8"/>
<circle cx="560" cy="420" r="3.2" fill="#87A878" fill-opacity="0.8"/>
<circle cx="575" cy="425" r="3.2" fill="#87A878" fill-opacity="0.8"/>
<circle cx="590" cy="430" r="3.2" fill="#87A878" fill-opacity="0.8"/>
<circle cx="605" cy="435" r="3.2" fill="#87A878" fill-opacity="0.8"/>
<circle cx="620" cy="440" r="3.2" fill="#87A878" fill-opacity="0.8"/>
<circle cx="635" cy="445" r="3.2" fill="#87A878" fill-opacity="0.8"/>
<circle cx="650" cy="450" r="3.2" fill="#87A878" fill-opacity="0.8"/>
<circle cx="665" cy="455" r="3.2" fill="#87A878" fill-opacity="0.8"/>
<circle cx="680" cy="460" r="3.2" fill="#87A878" fill-opacity="0.8"/>
<circle cx="695" cy="465" r="3.2" fill="#87A878" fill-opacity="0.8"/>
<circle cx="710" cy="470" r="3.2" fill="#87A878" fill-opacity="0.8"/>
<circle cx="725" cy="475" r="3.2" fill="#87A878" fill-opacity="0.8"/>
<circle cx="740" cy="480" r="3.2" fill="#87A878" fill-opacity="0.8"/>
<circle cx="755" cy="485" r="3.2" fill="#87A878" fill-opacity="0.8"/>
<text x="418" y="362" fill="#87A878" font-size="12" font-family="system-ui, -apple-system, Segoe UI, sans-serif" text-anchor="start">valid padding: λ = 56 − p</text>
<text x="445" y="540" fill="#87A878" font-size="12" font-family="system-ui, -apple-system, Segoe UI, sans-serif" text-anchor="middle">padding byte p (valid padding needs p ≤ ℓ<tspan dy='4' font-size='75%'>P</tspan><tspan dy='-4'>​</tspan> − t − 1 = 43)</text>
<text x="445" y="560" fill="#B8A9C9" font-size="12" font-family="system-ui, -apple-system, Segoe UI, sans-serif" text-anchor="middle">A ciphertext rejected at step 1 gets no MAC, so λ is undefined there.</text>
</svg>
