<svg xmlns="http://www.w3.org/2000/svg" viewBox="0 0 900 590" width="900" height="590" role="img" aria-label="Definition 2.1: a TLS 1.1 CBC cipher suite pairs a block cipher with block size 8 (DES, 3DES-EDE, IDEA) or 16 (AES) bytes with HMAC-MD5 (16-byte tag) or HMAC-SHA-1 (20-byte tag), the tag being the untruncated digest">
<text x="20" y="28" fill="#87A878" font-size="15" font-family="system-ui, -apple-system, Segoe UI, sans-serif" font-weight="bold" text-anchor="start">Definition 2.1: a TLS 1.1 CBC cipher suite fixes a block cipher E and a MAC HMAC-H</text>
<rect x="20" y="46" width="860" height="156" fill="none" stroke="#87A878" stroke-width="1.5" rx="6"/>
<text x="40" y="74" fill="#87A878" font-size="14" font-family="system-ui, -apple-system, Segoe UI, sans-serif" font-weight="bold" text-anchor="start">Block cipher E, block size b (bytes)</text>
<text x="860" y="74" fill="#87A878" font-size="12" font-family="system-ui, -apple-system, Segoe UI, sans-serif" text-anchor="end">RFC 4346 App. A.5 · RFC 3268</text>
<text x="40" y="118" fill="#87A878" font-size="14" font-family="system-ui, -apple-system, Segoe UI, sans-serif" text-anchor="start">DES, 3DES-EDE, IDEA</text>
<rect x="260" y="100" width="22" height="26" fill="#87A878" fill-opacity="0.18" stroke="#87A878" stroke-width="1.2" rx="2"/>
<rect x="282" y="100" width="22" height="26" fill="#87A878" fill-opacity="0.18" stroke="#87A878" stroke-width="1.2" rx="2"/>
<rect x="304" y="100" width="22" height="26" fill="#87A878" fill-opacity="0.18" stroke="#87A878" stroke-width="1.2" rx="2"/>
<rect x="326" y="100" width="22" height="26" fill="#87A878" fill-opacity="0.18" stroke="#87A878" stroke-width="1.2" rx="2"/>
<rect x="348" y="100" width="22" height="26" fill="#87A878" fill-opacity="0.18" stroke="#87A878" stroke-width="1.2" rx="2"/>
<rect x="370" y="100" width="22" height="26" fill="#87A878" fill-opacity="0.18" stroke="#87A878" stroke-width="1.2" rx="2"/>
<rect x="392" y="100" width="22" height="26" fill="#87A878" fill-opacity="0.18" stroke="#87A878" stroke-width="1.2" rx="2"/>
<rect x="414" y="100" width="22" height="26" fill="#87A878" fill-opacity="0.18" stroke="#87A878" stroke-width="1.2" rx="2"/>
<text x="452" y="118" fill="#87A878" font-size="16" font-family="STIX Two Math, Latin Modern Math, Cambria Math, Times New Roman, serif" font-style="italic" text-anchor="start">b = 8</text>
<text x="40" y="166" fill="#87A878" font-size="14" font-family="system-ui, -apple-system, Segoe UI, sans-serif" text-anchor="start">AES</text>
<rect x="260" y="148" width="22" height="26" fill="#87A878" fill-opacity="0.18" stroke="#87A878" stroke-width="1.2" rx="2"/>
<rect x="282" y="148" width="22" height="26" fill="#87A878" fill-opacity="0.18" stroke="#87A878" stroke-width="1.2" rx="2"/>
<rect x="304" y="148" width="22" height="26" fill="#87A878" fill-opacity="0.18" stroke="#87A878" stroke-width="1.2" rx="2"/>
<rect x="326" y="148" width="22" height="26" fill="#87A878" fill-opacity="0.18" stroke="#87A878" stroke-width="1.2" rx="2"/>
<rect x="348" y="148" width="22" height="26" fill="#87A878" fill-opacity="0.18" stroke="#87A878" stroke-width="1.2" rx="2"/>
<rect x="370" y="148" width="22" height="26" fill="#87A878" fill-opacity="0.18" stroke="#87A878" stroke-width="1.2" rx="2"/>
<rect x="392" y="148" width="22" height="26" fill="#87A878" fill-opacity="0.18" stroke="#87A878" stroke-width="1.2" rx="2"/>
<rect x="414" y="148" width="22" height="26" fill="#87A878" fill-opacity="0.18" stroke="#87A878" stroke-width="1.2" rx="2"/>
<rect x="436" y="148" width="22" height="26" fill="#87A878" fill-opacity="0.18" stroke="#87A878" stroke-width="1.2" rx="2"/>
<rect x="458" y="148" width="22" height="26" fill="#87A878" fill-opacity="0.18" stroke="#87A878" stroke-width="1.2" rx="2"/>
<rect x="480" y="148" width="22" height="26" fill="#87A878" fill-opacity="0.18" stroke="#87A878" stroke-width="1.2" rx="2"/>
<rect x="502" y="148" width="22" height="26" fill="#87A878" fill-opacity="0.18" stroke="#87A878" stroke-width="1.2" rx="2"/>
<rect x="524" y="148" width="22" height="26" fill="#87A878" fill-opacity="0.18" stroke="#87A878" stroke-width="1.2" rx="2"/>
<rect x="546" y="148" width="22" height="26" fill="#87A878" fill-opacity="0.18" stroke="#87A878" stroke-width="1.2" rx="2"/>
<rect x="568" y="148" width="22" height="26" fill="#87A878" fill-opacity="0.18" stroke="#87A878" stroke-width="1.2" rx="2"/>
<rect x="590" y="148" width="22" height="26" fill="#87A878" fill-opacity="0.18" stroke="#87A878" stroke-width="1.2" rx="2"/>
<text x="628" y="166" fill="#87A878" font-size="16" font-family="STIX Two Math, Latin Modern Math, Cambria Math, Times New Roman, serif" font-style="italic" text-anchor="start">b = 16</text>
<text x="260" y="192" fill="#87A878" font-size="12" font-family="system-ui, -apple-system, Segoe UI, sans-serif" text-anchor="start">one block = b bytes</text>
<rect x="20" y="218" width="860" height="186" fill="none" stroke="#B8A9C9" stroke-width="1.5" rx="6"/>
<text x="40" y="246" fill="#B8A9C9" font-size="14" font-family="system-ui, -apple-system, Segoe UI, sans-serif" font-weight="bold" text-anchor="start">MAC HMAC-H, tag length t (bytes)</text>
<text x="860" y="246" fill="#B8A9C9" font-size="14" font-family="STIX Two Math, Latin Modern Math, Cambria Math, Times New Roman, serif" font-style="italic" text-anchor="end">H ∈ {MD5, SHA-1}</text>
<text x="40" y="290" fill="#B8A9C9" font-size="14" font-family="system-ui, -apple-system, Segoe UI, sans-serif" text-anchor="start">HMAC-MD5</text>
<rect x="260" y="272" width="22" height="26" fill="#B8A9C9" fill-opacity="0.18" stroke="#B8A9C9" stroke-width="1.2" rx="2"/>
<rect x="282" y="272" width="22" height="26" fill="#B8A9C9" fill-opacity="0.18" stroke="#B8A9C9" stroke-width="1.2" rx="2"/>
<rect x="304" y="272" width="22" height="26" fill="#B8A9C9" fill-opacity="0.18" stroke="#B8A9C9" stroke-width="1.2" rx="2"/>
<rect x="326" y="272" width="22" height="26" fill="#B8A9C9" fill-opacity="0.18" stroke="#B8A9C9" stroke-width="1.2" rx="2"/>
<rect x="348" y="272" width="22" height="26" fill="#B8A9C9" fill-opacity="0.18" stroke="#B8A9C9" stroke-width="1.2" rx="2"/>
<rect x="370" y="272" width="22" height="26" fill="#B8A9C9" fill-opacity="0.18" stroke="#B8A9C9" stroke-width="1.2" rx="2"/>
<rect x="392" y="272" width="22" height="26" fill="#B8A9C9" fill-opacity="0.18" stroke="#B8A9C9" stroke-width="1.2" rx="2"/>
<rect x="414" y="272" width="22" height="26" fill="#B8A9C9" fill-opacity="0.18" stroke="#B8A9C9" stroke-width="1.2" rx="2"/>
<rect x="436" y="272" width="22" height="26" fill="#B8A9C9" fill-opacity="0.18" stroke="#B8A9C9" stroke-width="1.2" rx="2"/>
<rect x="458" y="272" width="22" height="26" fill="#B8A9C9" fill-opacity="0.18" stroke="#B8A9C9" stroke-width="1.2" rx="2"/>
<rect x="480" y="272" width="22" height="26" fill="#B8A9C9" fill-opacity="0.18" stroke="#B8A9C9" stroke-width="1.2" rx="2"/>
<rect x="502" y="272" width="22" height="26" fill="#B8A9C9" fill-opacity="0.18" stroke="#B8A9C9" stroke-width="1.2" rx="2"/>
<rect x="524" y="272" width="22" height="26" fill="#B8A9C9" fill-opacity="0.18" stroke="#B8A9C9" stroke-width="1.2" rx="2"/>
<rect x="546" y="272" width="22" height="26" fill="#B8A9C9" fill-opacity="0.18" stroke="#B8A9C9" stroke-width="1.2" rx="2"/>
<rect x="568" y="272" width="22" height="26" fill="#B8A9C9" fill-opacity="0.18" stroke="#B8A9C9" stroke-width="1.2" rx="2"/>
<rect x="590" y="272" width="22" height="26" fill="#B8A9C9" fill-opacity="0.18" stroke="#B8A9C9" stroke-width="1.2" rx="2"/>
<text x="628" y="290" fill="#B8A9C9" font-size="16" font-family="STIX Two Math, Latin Modern Math, Cambria Math, Times New Roman, serif" font-style="italic" text-anchor="start">t = 16</text>
<text x="40" y="338" fill="#B8A9C9" font-size="14" font-family="system-ui, -apple-system, Segoe UI, sans-serif" text-anchor="start">HMAC-SHA-1</text>
<rect x="260" y="320" width="22" height="26" fill="#B8A9C9" fill-opacity="0.18" stroke="#B8A9C9" stroke-width="1.2" rx="2"/>
<rect x="282" y="320" width="22" height="26" fill="#B8A9C9" fill-opacity="0.18" stroke="#B8A9C9" stroke-width="1.2" rx="2"/>
<rect x="304" y="320" width="22" height="26" fill="#B8A9C9" fill-opacity="0.18" stroke="#B8A9C9" stroke-width="1.2" rx="2"/>
<rect x="326" y="320" width="22" height="26" fill="#B8A9C9" fill-opacity="0.18" stroke="#B8A9C9" stroke-width="1.2" rx="2"/>
<rect x="348" y="320" width="22" height="26" fill="#B8A9C9" fill-opacity="0.18" stroke="#B8A9C9" stroke-width="1.2" rx="2"/>
<rect x="370" y="320" width="22" height="26" fill="#B8A9C9" fill-opacity="0.18" stroke="#B8A9C9" stroke-width="1.2" rx="2"/>
<rect x="392" y="320" width="22" height="26" fill="#B8A9C9" fill-opacity="0.18" stroke="#B8A9C9" stroke-width="1.2" rx="2"/>
<rect x="414" y="320" width="22" height="26" fill="#B8A9C9" fill-opacity="0.18" stroke="#B8A9C9" stroke-width="1.2" rx="2"/>
<rect x="436" y="320" width="22" height="26" fill="#B8A9C9" fill-opacity="0.18" stroke="#B8A9C9" stroke-width="1.2" rx="2"/>
<rect x="458" y="320" width="22" height="26" fill="#B8A9C9" fill-opacity="0.18" stroke="#B8A9C9" stroke-width="1.2" rx="2"/>
<rect x="480" y="320" width="22" height="26" fill="#B8A9C9" fill-opacity="0.18" stroke="#B8A9C9" stroke-width="1.2" rx="2"/>
<rect x="502" y="320" width="22" height="26" fill="#B8A9C9" fill-opacity="0.18" stroke="#B8A9C9" stroke-width="1.2" rx="2"/>
<rect x="524" y="320" width="22" height="26" fill="#B8A9C9" fill-opacity="0.18" stroke="#B8A9C9" stroke-width="1.2" rx="2"/>
<rect x="546" y="320" width="22" height="26" fill="#B8A9C9" fill-opacity="0.18" stroke="#B8A9C9" stroke-width="1.2" rx="2"/>
<rect x="568" y="320" width="22" height="26" fill="#B8A9C9" fill-opacity="0.18" stroke="#B8A9C9" stroke-width="1.2" rx="2"/>
<rect x="590" y="320" width="22" height="26" fill="#B8A9C9" fill-opacity="0.18" stroke="#B8A9C9" stroke-width="1.2" rx="2"/>
<rect x="612" y="320" width="22" height="26" fill="#B8A9C9" fill-opacity="0.18" stroke="#B8A9C9" stroke-width="1.2" rx="2"/>
<rect x="634" y="320" width="22" height="26" fill="#B8A9C9" fill-opacity="0.18" stroke="#B8A9C9" stroke-width="1.2" rx="2"/>
<rect x="656" y="320" width="22" height="26" fill="#B8A9C9" fill-opacity="0.18" stroke="#B8A9C9" stroke-width="1.2" rx="2"/>
<rect x="678" y="320" width="22" height="26" fill="#B8A9C9" fill-opacity="0.18" stroke="#B8A9C9" stroke-width="1.2" rx="2"/>
<text x="716" y="338" fill="#B8A9C9" font-size="16" font-family="STIX Two Math, Latin Modern Math, Cambria Math, Times New Roman, serif" font-style="italic" text-anchor="start">t = 20</text>
<text x="40" y="384" fill="#B8A9C9" font-size="13" font-family="system-ui, -apple-system, Segoe UI, sans-serif" text-anchor="start">The tag is the whole digest, never truncated:</text>
<text x="330" y="384" fill="#B8A9C9" font-size="15" font-family="STIX Two Math, Latin Modern Math, Cambria Math, Times New Roman, serif" font-style="italic" text-anchor="start">t = d</text>
<rect x="20" y="420" width="860" height="150" fill="none" stroke="#87A878" stroke-width="1.5" rx="6"/>
<text x="40" y="448" fill="#87A878" font-size="14" font-family="system-ui, -apple-system, Segoe UI, sans-serif" font-weight="bold" text-anchor="start">One suite = one pair (E, H)</text>
<text x="500" y="462" fill="#B8A9C9" font-size="13" font-family="system-ui, -apple-system, Segoe UI, sans-serif" text-anchor="middle">MD5</text>
<text x="700" y="462" fill="#B8A9C9" font-size="13" font-family="system-ui, -apple-system, Segoe UI, sans-serif" text-anchor="middle">SHA-1</text>
<text x="390" y="492" fill="#87A878" font-size="15" font-family="STIX Two Math, Latin Modern Math, Cambria Math, Times New Roman, serif" font-style="italic" text-anchor="end">b = 8</text>
<rect x="410" y="470" width="180" height="36" fill="#B8A9C9" fill-opacity="0.12" stroke="#87A878" stroke-width="1.2" rx="4"/>
<text x="500" y="493" fill="#87A878" font-size="14" font-family="STIX Two Math, Latin Modern Math, Cambria Math, Times New Roman, serif" font-style="italic" text-anchor="middle">b = 8, t = 16</text>
<rect x="610" y="470" width="180" height="36" fill="#B8A9C9" fill-opacity="0.12" stroke="#87A878" stroke-width="1.2" rx="4"/>
<text x="700" y="493" fill="#87A878" font-size="14" font-family="STIX Two Math, Latin Modern Math, Cambria Math, Times New Roman, serif" font-style="italic" text-anchor="middle">b = 8, t = 20</text>
<text x="390" y="538" fill="#87A878" font-size="15" font-family="STIX Two Math, Latin Modern Math, Cambria Math, Times New Roman, serif" font-style="italic" text-anchor="end">b = 16</text>
<rect x="410" y="516" width="180" height="36" fill="#B8A9C9" fill-opacity="0.12" stroke="#87A878" stroke-width="1.2" rx="4"/>
<text x="500" y="539" fill="#87A878" font-size="14" font-family="STIX Two Math, Latin Modern Math, Cambria Math, Times New Roman, serif" font-style="italic" text-anchor="middle">b = 16, t = 16</text>
<rect x="610" y="516" width="180" height="36" fill="#B8A9C9" fill-opacity="0.12" stroke="#87A878" stroke-width="1.2" rx="4"/>
<text x="700" y="539" fill="#87A878" font-size="14" font-family="STIX Two Math, Latin Modern Math, Cambria Math, Times New Roman, serif" font-style="italic" text-anchor="middle">b = 16, t = 20</text>
</svg>
